<svg width="1200" height="720" viewBox="0 0 1200 720" fill="none" xmlns="http://www.w3.org/2000/svg">
  <rect width="1200" height="720" rx="48" fill="#F4FBFD"/>
  <rect x="92" y="86" width="1016" height="548" rx="36" fill="#FFFFFF" stroke="#D8EAF1" stroke-width="4"/>
  <rect x="92" y="86" width="1016" height="74" rx="36" fill="#EAF7FC"/>
  <circle cx="140" cy="124" r="11" fill="#E94D62"/>
  <circle cx="178" cy="124" r="11" fill="#F5B95A"/>
  <circle cx="216" cy="124" r="11" fill="#73C7AE"/>
  <text x="260" y="132" fill="#22313B" font-family="Segoe UI, Microsoft YaHei, Arial" font-size="26" font-weight="700">Record &amp; Replay</text>
  <g font-family="Segoe UI, Microsoft YaHei, Arial">
    <rect x="154" y="235" width="210" height="150" rx="24" fill="#F8FCFE" stroke="#CFE6F1" stroke-width="3"/>
    <circle cx="210" cy="310" r="34" fill="#E94D62"/>
    <polygon points="203,291 203,329 234,310" fill="white"/>
    <text x="154" y="430" fill="#17384A" font-size="28" font-weight="700">录制一次流程</text>
    <text x="154" y="468" fill="#66747F" font-size="21">你在 Mac 上正常演示</text>

    <rect x="495" y="235" width="210" height="150" rx="24" fill="#F8FCFE" stroke="#CFE6F1" stroke-width="3"/>
    <rect x="540" y="276" width="120" height="26" rx="13" fill="#74BFDF"/>
    <rect x="540" y="320" width="86" height="20" rx="10" fill="#CFEFE5"/>
    <path d="M656 330L681 355L735 286" stroke="#E94D62" stroke-width="14" stroke-linecap="round" stroke-linejoin="round"/>
    <text x="495" y="430" fill="#17384A" font-size="28" font-weight="700">整理成规则</text>
    <text x="495" y="468" fill="#66747F" font-size="21">Codex 提炼步骤和判断点</text>

    <rect x="836" y="235" width="210" height="150" rx="24" fill="#F8FCFE" stroke="#CFE6F1" stroke-width="3"/>
    <rect x="887" y="266" width="110" height="92" rx="14" fill="#22313B"/>
    <path d="M910 294H974" stroke="#D9F99D" stroke-width="8" stroke-linecap="round"/>
    <path d="M910 322H958" stroke="#FFFFFF" stroke-opacity=".82" stroke-width="8" stroke-linecap="round"/>
    <text x="836" y="430" fill="#17384A" font-size="28" font-weight="700">生成可复用 Skill</text>
    <text x="836" y="468" fill="#66747F" font-size="21">下次换输入直接复用</text>
  </g>
  <path d="M384 310H462" stroke="#9BCFE4" stroke-width="10" stroke-linecap="round"/>
  <path d="M446 286L471 310L446 334" stroke="#9BCFE4" stroke-width="10" stroke-linecap="round" stroke-linejoin="round"/>
  <path d="M725 310H803" stroke="#9BCFE4" stroke-width="10" stroke-linecap="round"/>
  <path d="M787 286L812 310L787 334" stroke="#9BCFE4" stroke-width="10" stroke-linecap="round" stroke-linejoin="round"/>
  <rect x="154" y="542" width="892" height="48" rx="24" fill="#FFF7E5" stroke="#FFE2A8" stroke-width="2"/>
  <text x="186" y="574" fill="#6D5736" font-family="Segoe UI, Microsoft YaHei, Arial" font-size="21">适合步骤稳定、经常重复、用文字描述很麻烦的工作流。录制时避开密码和敏感数据。</text>
</svg>